<svg width="86" height="86" viewBox="0 0 86 86" fill="none" xmlns="http://www.w3.org/2000/svg">
<path d="M43 86C66.7482 86 86 66.7482 86 43C86 19.2518 66.7482 0 43 0C19.2518 0 0 19.2518 0 43C0 66.7482 19.2518 86 43 86Z" fill="#0F6808"/>
<path d="M37.4845 78.164L36.6458 77.7782C36.8404 77.3085 37.1076 76.9741 37.4487 76.7773C37.7898 76.5805 38.1991 76.5112 38.6777 76.5704C39.2693 76.6442 39.7312 76.9071 40.0622 77.3588C40.3932 77.8106 40.514 78.3877 40.4268 79.0889C40.334 79.8314 40.0712 80.3839 39.6361 80.7462C39.2011 81.1085 38.6722 81.2517 38.047 81.1734C37.5013 81.1052 37.0786 80.8893 36.7777 80.5237C36.5988 80.3078 36.4803 80.0148 36.4244 79.6458L37.3425 79.544C37.366 79.7822 37.4532 79.9779 37.6042 80.1322C37.7551 80.2866 37.9497 80.3794 38.189 80.4085C38.5201 80.4498 38.803 80.3648 39.0378 80.1524C39.2727 79.941 39.4237 79.5697 39.4908 79.0385C39.5612 78.4749 39.5098 78.0611 39.3364 77.7961C39.1642 77.5311 38.9148 77.379 38.5905 77.3387C38.3512 77.3085 38.1365 77.3588 37.9453 77.4897C37.754 77.6205 37.6008 77.8442 37.4845 78.1607V78.164Z" fill="white"/>
<path d="M35.797 78.4894C35.6796 78.9323 35.5152 79.2857 35.3027 79.5507C35.145 79.7453 34.9583 79.9086 34.7402 80.0383C34.5221 80.1692 34.3007 80.2497 34.0748 80.2799C33.774 80.3224 33.4463 80.2966 33.0929 80.2027C32.4533 80.0327 31.9936 79.6983 31.7152 79.1996C31.4367 78.7008 31.3909 78.098 31.5787 77.3902C31.7655 76.689 32.101 76.1913 32.5875 75.8961C33.0739 75.6009 33.6364 75.5382 34.2739 75.7082C34.9191 75.8793 35.381 76.2137 35.6572 76.708C35.9334 77.2034 35.9804 77.7961 35.797 78.4883V78.4894ZM34.8856 78.2792C35.0164 77.7872 35.0019 77.3846 34.842 77.0703C34.682 76.7561 34.4282 76.5525 34.0782 76.4597C33.7281 76.3669 33.4083 76.4161 33.1175 76.6085C32.8268 76.8008 32.6143 77.1486 32.4801 77.6518C32.3481 78.1495 32.3582 78.5498 32.5114 78.8529C32.6646 79.156 32.9218 79.355 33.283 79.4512C33.6442 79.5474 33.9686 79.5004 34.256 79.3114C34.5434 79.1224 34.7525 78.778 34.8856 78.2781V78.2792Z" fill="white"/>
<path d="M30.9312 77.1441C30.7534 77.5657 30.5409 77.8934 30.2938 78.126C30.1104 78.2971 29.9024 78.4324 29.6687 78.5308C29.4349 78.6292 29.2046 78.6784 28.9764 78.6773C28.6723 78.6773 28.3524 78.6069 28.0147 78.4637C27.4052 78.2065 26.997 77.8106 26.7901 77.2783C26.5833 76.7449 26.6224 76.1421 26.9076 75.4678C27.1894 74.799 27.592 74.354 28.1153 74.1292C28.6376 73.9055 29.2035 73.9212 29.8118 74.1784C30.4269 74.4378 30.8373 74.8326 31.0419 75.3615C31.2466 75.8905 31.2097 76.4843 30.9312 77.143V77.1441ZM30.0578 76.8086C30.2558 76.3401 30.2972 75.9386 30.1831 75.6053C30.069 75.2721 29.8454 75.035 29.5121 74.8941C29.1788 74.7532 28.8545 74.7577 28.5403 74.9075C28.2249 75.0574 27.9666 75.3727 27.7631 75.8525C27.5629 76.3267 27.517 76.7248 27.6266 77.0457C27.7362 77.3667 27.9633 77.6004 28.3077 77.7458C28.6521 77.8912 28.9798 77.89 29.2907 77.7435C29.6016 77.5959 29.8577 77.285 30.059 76.8086H30.0578Z" fill="white"/>
<path d="M27.2822 73.1149L25.0143 76.9943L23.7573 76.2595C23.2809 75.9811 22.9823 75.7798 22.8604 75.6568C22.6725 75.4689 22.5596 75.2329 22.5238 74.9511C22.488 74.6682 22.5596 74.373 22.7408 74.0643C22.8805 73.8261 23.0405 73.6517 23.2216 73.5398C23.4028 73.428 23.5873 73.3643 23.7752 73.3497C23.962 73.3352 24.1342 73.3531 24.2885 73.4034C24.4976 73.4761 24.7783 73.6159 25.1339 73.8228L25.645 74.1213L26.5005 72.6575L27.2833 73.1149H27.2822ZM24.615 75.8804L25.2581 74.78L24.8298 74.5295C24.5211 74.3495 24.303 74.2488 24.1744 74.2287C24.0469 74.2086 23.9284 74.2242 23.8188 74.2757C23.7092 74.3271 23.6209 74.411 23.5538 74.5251C23.471 74.666 23.4442 74.8069 23.4744 74.9467C23.5034 75.0864 23.575 75.2061 23.6891 75.3023C23.7718 75.375 23.9552 75.4935 24.2371 75.6579L24.615 75.8793V75.8804Z" fill="white"/>
<path d="M23.7953 70.9789L23.2999 71.6834L22.5954 71.188L23.0908 70.4835L23.7953 70.9789Z" fill="white"/>
<path d="M21.0957 68.9827L18.026 72.2638L17.3807 71.6611L18.0875 68.2133L16.0376 70.4052L15.4226 69.8293L18.4923 66.5482L19.1577 67.17L18.4789 70.5472L20.4807 68.4068L21.0957 68.9827Z" fill="white"/>
<path d="M15.3476 62.8231L15.9761 63.5847L15.4382 64.5363L16.5811 65.9219L17.6044 65.5585L18.2172 66.301L13.6366 67.8096L13.026 67.0693L15.3476 62.822V62.8231ZM15.039 65.2431L14.1466 66.7819L15.8196 66.1892L15.039 65.2431Z" fill="white"/>
<path d="M12.2421 60.9656L12.0117 60.0721C12.4993 59.9256 12.9265 59.9233 13.2955 60.062C13.6635 60.2018 13.9755 60.4758 14.2316 60.884C14.548 61.3894 14.6364 61.9139 14.4944 62.4552C14.3523 62.9976 13.9822 63.4561 13.3839 63.8307C12.7498 64.2277 12.1549 64.372 11.5991 64.2646C11.0433 64.1572 10.5982 63.8363 10.2649 63.3029C9.97306 62.8365 9.87353 62.3724 9.96635 61.9094C10.0211 61.6343 10.1732 61.3581 10.4237 61.0808L11.0824 61.7283C10.9136 61.8971 10.8163 62.0884 10.7917 62.3031C10.7671 62.5178 10.8185 62.7269 10.946 62.9316C11.1227 63.2145 11.3676 63.38 11.6807 63.4281C11.9938 63.4773 12.3763 63.3588 12.8303 63.0747C13.3123 62.7728 13.6008 62.472 13.6959 62.1711C13.791 61.8703 13.7529 61.5807 13.5796 61.3033C13.4521 61.0987 13.2765 60.9634 13.054 60.8985C12.8326 60.8325 12.5619 60.8549 12.2421 60.9656Z" fill="white"/>
<path d="M12.9108 58.739L8.90284 60.771L8.49242 59.9613L12.5004 57.9294L12.9108 58.739Z" fill="white"/>
<path d="M10.124 58.2448C9.69795 58.4114 9.31549 58.4885 8.97664 58.474C8.72614 58.4628 8.48459 58.408 8.25086 58.3096C8.01714 58.2112 7.82032 58.0804 7.66152 57.9171C7.44904 57.7001 7.2757 57.4206 7.14262 57.0806C6.90107 56.4644 6.89883 55.8963 7.13591 55.3763C7.37299 54.8563 7.83262 54.4626 8.51367 54.1954C9.18912 53.9303 9.78965 53.9068 10.3153 54.1238C10.8409 54.3419 11.2233 54.7579 11.4649 55.3718C11.7087 55.9936 11.7131 56.5628 11.4783 57.0784C11.2423 57.5939 10.7928 57.9831 10.1263 58.2436L10.124 58.2448ZM9.75387 57.3859C10.2269 57.2003 10.5434 56.9498 10.7022 56.6355C10.861 56.3213 10.8744 55.9947 10.7425 55.6581C10.6105 55.3215 10.3812 55.0922 10.0536 54.9715C9.72591 54.8507 9.31997 54.8854 8.83462 55.0755C8.35487 55.2633 8.03839 55.5094 7.88518 55.8113C7.73197 56.1144 7.72302 56.4398 7.85946 56.7876C7.99589 57.1354 8.22514 57.3691 8.54833 57.4888C8.87152 57.6084 9.273 57.5738 9.75387 57.3848V57.3859Z" fill="white"/>
<path d="M10.4483 52.8165L6.08247 53.88L5.87334 53.0223L8.35375 50.5251L5.43832 51.2352L5.23815 50.4166L9.60401 49.3531L9.81985 50.2377L7.40207 52.6912L10.2493 51.9979L10.4483 52.8165Z" fill="white"/>
<path d="M9.00908 44.5142L9.11867 45.4949L8.14798 45.9982L8.34704 47.783L9.40272 48.038L9.50896 48.9941L4.84898 47.7539L4.74274 46.8L9.00796 44.5131L9.00908 44.5142ZM7.42779 46.3717L5.8398 47.1724L7.56422 47.5906L7.42779 46.3717Z" fill="white"/>
<path d="M9.03592 44.1295L4.57946 44.0948L4.58617 43.1879L8.28553 43.2169L8.30342 40.9613L9.06052 40.9669L9.03592 44.1295Z" fill="white"/>
<path d="M4.83668 37.9665L5.13079 36.3349C5.19677 35.967 5.27617 35.6919 5.36675 35.5085C5.48977 35.2624 5.66534 35.0645 5.89459 34.9146C6.12273 34.7648 6.38777 34.6675 6.68747 34.6216C6.98718 34.5758 7.34504 34.5903 7.75881 34.6653C8.12338 34.7312 8.42868 34.833 8.67582 34.9706C8.97776 35.1394 9.20925 35.3441 9.37141 35.5845C9.49442 35.7668 9.57382 35.9972 9.61073 36.2756C9.63756 36.4836 9.62079 36.7531 9.56152 37.083L9.25846 38.7627L4.83668 37.9654V37.9665ZM5.74586 37.2083L8.6747 37.7361L8.79548 37.0696C8.84021 36.8202 8.85922 36.638 8.85028 36.5216C8.84021 36.3707 8.79995 36.2387 8.73062 36.128C8.66128 36.0173 8.53268 35.9133 8.34592 35.8171C8.15916 35.7209 7.89412 35.6427 7.55192 35.5812C7.20972 35.5196 6.94245 35.5029 6.74786 35.5297C6.55439 35.5565 6.39559 35.6158 6.2737 35.7053C6.1518 35.7959 6.05787 35.9211 5.99077 36.081C5.94044 36.2007 5.88229 36.4422 5.81631 36.8068L5.74362 37.2083H5.74586Z" fill="white"/>
<path d="M10.0983 34.4416L5.81072 33.0974L6.80713 29.9181L7.53291 30.1451L6.80825 32.4588L7.75881 32.7563L8.43315 30.6036L9.15557 30.8295L8.48124 32.9822L9.64763 33.3479L10.398 30.9525L11.1204 31.1784L10.0983 34.4394V34.4416Z" fill="white"/>
<path d="M13.8726 25.4269L13.4186 26.3026L12.3316 26.1807L11.5051 27.7754L12.241 28.5738L11.7981 29.4282L8.61431 25.806L9.05605 24.9539L13.8737 25.4247L13.8726 25.4269ZM11.5253 26.0923L9.75946 25.8743L10.9605 27.1804L11.5241 26.0923H11.5253Z" fill="white"/>
<path d="M14.0784 25.1395L10.3879 22.5753L10.9057 21.8305L12.3584 22.8392L13.3727 21.3787L11.92 20.3699L12.4378 19.6252L16.1282 22.1894L15.6104 22.9342L13.9967 21.8137L12.9824 23.2742L14.5961 24.3947L14.0784 25.1395Z" fill="white"/>
<path d="M14.8567 20.1933C14.519 19.8846 14.2819 19.5748 14.1455 19.2639C14.0459 19.0336 13.9878 18.792 13.9732 18.5393C13.9587 18.2865 13.99 18.0528 14.0672 17.8381C14.1689 17.5518 14.3434 17.2734 14.5894 17.0038C15.0367 16.5151 15.5456 16.2635 16.117 16.2468C16.6885 16.2311 17.2443 16.4693 17.7833 16.9636C18.319 17.4534 18.6041 17.9824 18.6399 18.5493C18.6757 19.1163 18.4711 19.6442 18.026 20.1306C17.5753 20.6238 17.0654 20.8777 16.4984 20.8933C15.9314 20.909 15.3845 20.6752 14.8567 20.1933ZM15.4651 19.4831C15.8408 19.8265 16.2043 19.9998 16.5565 20.0043C16.9088 20.0087 17.2074 19.8768 17.4512 19.6095C17.695 19.3422 17.8001 19.0358 17.7643 18.6891C17.7285 18.3425 17.5183 17.9924 17.1347 17.6413C16.7545 17.2935 16.3955 17.1179 16.0555 17.1134C15.7167 17.109 15.4203 17.2443 15.1676 17.5205C14.9149 17.7967 14.8064 18.1054 14.841 18.4476C14.8757 18.7898 15.0837 19.1353 15.4651 19.4843V19.4831Z" fill="white"/>
<path d="M19.8656 18.1009L16.986 14.6509L18.4521 13.4275C18.8211 13.12 19.1141 12.9276 19.3333 12.8493C19.5525 12.7722 19.7772 12.7699 20.0099 12.8449C20.2425 12.9198 20.4438 13.0585 20.6137 13.2631C20.8296 13.5214 20.9325 13.7988 20.9213 14.0951C20.9101 14.3915 20.7714 14.6867 20.5053 14.9842C20.7289 14.9462 20.9336 14.9395 21.1203 14.9618C21.306 14.9853 21.5945 15.0613 21.9848 15.1911L22.9678 15.512L22.1346 16.2076L21.004 15.8777C20.6014 15.7592 20.3375 15.6921 20.2134 15.6775C20.0893 15.663 19.9797 15.6731 19.8846 15.7088C19.7895 15.7446 19.6621 15.8296 19.5021 15.9627L19.3612 16.0801L20.5634 17.5205L19.8667 18.102L19.8656 18.1009ZM18.9005 15.5288L19.416 15.0983C19.7504 14.8198 19.9472 14.6308 20.0065 14.5335C20.0658 14.4362 20.0904 14.3333 20.0803 14.2249C20.0702 14.1164 20.021 14.0101 19.9349 13.9073C19.8376 13.791 19.7292 13.7239 19.6073 13.7037C19.4854 13.6836 19.3601 13.7116 19.2315 13.7876C19.1689 13.8267 18.9956 13.9643 18.7137 14.2003L18.1702 14.6543L18.9005 15.5299V15.5288Z" fill="white"/>
<path d="M23.2731 15.3219L20.8654 11.5286L22.478 10.5054C22.8828 10.2482 23.1993 10.095 23.4263 10.0469C23.6533 9.99878 23.877 10.0256 24.0984 10.1307C24.3198 10.2347 24.501 10.3991 24.643 10.6239C24.8242 10.9091 24.889 11.1965 24.8398 11.4884C24.7906 11.7802 24.6139 12.0553 24.312 12.3148C24.539 12.3058 24.7425 12.326 24.9237 12.3729C25.1049 12.4199 25.38 12.5329 25.7512 12.7118L26.6839 13.158L25.768 13.7395L24.69 13.2654C24.3064 13.0954 24.0537 12.9947 23.9329 12.9634C23.8121 12.9332 23.7014 12.9287 23.6019 12.9522C23.5023 12.9757 23.3648 13.0428 23.1892 13.1546L23.0338 13.253L24.0391 14.8366L23.2731 15.323V15.3219ZM22.6491 12.6469L23.216 12.2868C23.584 12.0531 23.8032 11.8921 23.8747 11.8037C23.9463 11.7143 23.9843 11.6158 23.9877 11.5074C23.991 11.3989 23.9564 11.2871 23.8848 11.173C23.8043 11.0455 23.7036 10.9639 23.5862 10.9281C23.4677 10.8934 23.3402 10.9046 23.2026 10.9628C23.1355 10.9941 22.9465 11.107 22.6356 11.305L22.0385 11.6841L22.6491 12.6469Z" fill="white"/>
<path d="M25.9078 11.0634C25.7166 10.6474 25.6193 10.2694 25.6137 9.93056C25.6115 9.68006 25.6528 9.43515 25.7367 9.19583C25.8217 8.95652 25.9414 8.75298 26.0957 8.58524C26.3003 8.36046 26.5698 8.17258 26.902 8.01937C27.5036 7.74315 28.0706 7.70849 28.6029 7.91649C29.1352 8.1245 29.5546 8.56063 29.8588 9.22491C30.1618 9.88471 30.2189 10.4819 30.031 11.0187C29.8431 11.5555 29.4495 11.9614 28.8501 12.2365C28.2428 12.515 27.6747 12.5519 27.1469 12.345C26.6179 12.1392 26.2053 11.7109 25.9067 11.0612L25.9078 11.0634ZM26.7443 10.6463C26.9568 11.1093 27.2241 11.4101 27.5472 11.551C27.8704 11.6919 28.1959 11.6863 28.5246 11.5353C28.8534 11.3844 29.0693 11.1428 29.171 10.8084C29.2728 10.4752 29.2158 10.0715 28.9988 9.59731C28.7841 9.12985 28.5213 8.82679 28.2104 8.69148C27.8995 8.55504 27.5741 8.56511 27.2341 8.72167C26.8942 8.87712 26.6738 9.11979 26.5721 9.44857C26.4714 9.77735 26.5285 10.1766 26.7443 10.6463Z" fill="white"/>
<path d="M30.6908 9.76281L31.5083 9.42061C31.647 9.68789 31.8136 9.86458 32.0104 9.94845C32.2072 10.0323 32.4365 10.0346 32.7004 9.95293C32.98 9.86682 33.1712 9.74269 33.2763 9.58053C33.3814 9.41838 33.4094 9.25846 33.3602 9.10078C33.3289 8.99901 33.2719 8.92185 33.1913 8.86929C33.1097 8.81673 32.9867 8.78653 32.8223 8.77982C32.7105 8.77647 32.4588 8.78541 32.0708 8.80666C31.5709 8.83462 31.2007 8.79436 30.9614 8.68477C30.6248 8.53044 30.4045 8.28329 30.2994 7.94333C30.2323 7.72414 30.2301 7.50048 30.296 7.27235C30.3609 7.04309 30.4951 6.84292 30.6975 6.67182C30.8999 6.4996 31.1661 6.36316 31.496 6.2614C32.035 6.09477 32.4767 6.08806 32.8223 6.23903C33.1678 6.39112 33.4083 6.66175 33.5436 7.05204L32.6881 7.35846C32.583 7.14933 32.4544 7.01514 32.3023 6.95587C32.1502 6.8966 31.9523 6.90554 31.7085 6.98047C31.4568 7.05875 31.2757 7.17058 31.165 7.3182C31.0934 7.41325 31.0755 7.51614 31.1102 7.62685C31.1415 7.72861 31.2108 7.80242 31.3193 7.84827C31.4568 7.90643 31.7521 7.91985 32.205 7.88965C32.6579 7.85834 33.0012 7.86505 33.2361 7.90978C33.4709 7.9534 33.6744 8.05069 33.8455 8.19942C34.0166 8.34816 34.1441 8.55952 34.228 8.83015C34.3041 9.07617 34.3074 9.32779 34.2369 9.585C34.1665 9.84221 34.0222 10.0614 33.8053 10.2426C33.5872 10.4237 33.292 10.5725 32.9196 10.6877C32.3772 10.8554 31.9209 10.8588 31.553 10.6977C31.1851 10.5367 30.8977 10.2247 30.693 9.7617L30.6908 9.76281Z" fill="white"/>
<path d="M35.0701 9.12985L35.9111 8.94645L36.043 9.5481C36.0967 9.79189 36.1168 9.98871 36.1056 10.1386C36.0945 10.2884 36.043 10.4316 35.9502 10.5691C35.8574 10.7067 35.7288 10.8263 35.5633 10.9303L35.3228 10.6194C35.4805 10.5266 35.5845 10.4237 35.6348 10.3097C35.6852 10.1956 35.6941 10.0536 35.6606 9.88359L35.2535 9.97306L35.069 9.13209L35.0701 9.12985Z" fill="white"/>
<path d="M41.3002 7.45687L42.1993 7.66711C42.1031 8.16699 41.9074 8.54722 41.6133 8.8089C41.3192 9.07058 40.9311 9.22044 40.4503 9.25734C39.8553 9.30319 39.351 9.1388 38.9361 8.76193C38.5212 8.38506 38.2863 7.84492 38.2315 7.13927C38.1734 6.39336 38.321 5.79954 38.6744 5.35669C39.0278 4.91384 39.5176 4.66893 40.145 4.61972C40.6929 4.57723 41.1503 4.70471 41.5182 5.00218C41.7374 5.17776 41.9108 5.44056 42.0405 5.79171L41.1615 6.07576C41.0899 5.84762 40.9658 5.67317 40.7869 5.55127C40.6079 5.42938 40.3988 5.37905 40.1584 5.39695C39.8262 5.42267 39.5657 5.56357 39.3778 5.81743C39.1899 6.0724 39.1161 6.46605 39.1575 6.99948C39.2011 7.56534 39.3353 7.96122 39.5578 8.186C39.7804 8.41078 40.0544 8.51031 40.3809 8.48459C40.6214 8.46558 40.8227 8.37388 40.9837 8.20725C41.1447 8.04062 41.251 7.79124 41.3002 7.45687Z" fill="white"/>
<path d="M42.9541 9.03592L43.1868 4.54815L45.0935 4.64768C45.5732 4.67228 45.9199 4.73044 46.1324 4.82326C46.346 4.91496 46.5126 5.06705 46.6323 5.28064C46.7519 5.49312 46.8056 5.73244 46.7911 5.99748C46.7732 6.33409 46.6602 6.60695 46.4511 6.81608C46.242 7.0252 45.9389 7.14821 45.5419 7.18512C45.732 7.30925 45.8875 7.44345 46.0071 7.58659C46.1268 7.72973 46.2867 7.98135 46.4846 8.34145L46.9868 9.24504L45.9031 9.18912L45.2992 8.17817C45.0845 7.81696 44.9369 7.58883 44.8564 7.49377C44.7759 7.39872 44.6875 7.33162 44.5936 7.29248C44.4996 7.25333 44.3487 7.22873 44.1407 7.21867L43.9573 7.20972L43.86 9.08288L42.9541 9.03592ZM43.9953 6.49401L44.6652 6.52867C45.1002 6.55104 45.3719 6.54657 45.4826 6.51637C45.5922 6.48506 45.6806 6.42691 45.7466 6.33968C45.8125 6.25357 45.8494 6.14286 45.8562 6.00754C45.864 5.85657 45.8304 5.73244 45.7544 5.63515C45.6783 5.53785 45.5676 5.47411 45.4223 5.44168C45.3496 5.42826 45.1293 5.41148 44.7613 5.39247L44.0546 5.35557L43.9953 6.49401Z" fill="white"/>
<path d="M47.3435 9.32332L48.1364 4.90042L51.4164 5.48865L51.2822 6.23679L48.8957 5.80848L48.7201 6.78924L50.9411 7.18735L50.8069 7.93215L48.5859 7.53403L48.3701 8.73845L50.8404 9.1813L50.7062 9.92609L47.3424 9.3222L47.3435 9.32332Z" fill="white"/>
<path d="M52.6644 5.78724L54.2468 6.28153C54.6035 6.39336 54.8675 6.50519 55.0374 6.61814C55.2656 6.77135 55.44 6.96929 55.5608 7.21531C55.6816 7.46022 55.7453 7.73532 55.7532 8.03839C55.761 8.34145 55.7028 8.69483 55.5765 9.0963C55.4658 9.44969 55.3271 9.73933 55.1593 9.96746C54.9547 10.2459 54.7221 10.4506 54.4638 10.5814C54.2681 10.6809 54.0299 10.7313 53.748 10.7335C53.5378 10.7335 53.2728 10.6843 52.9529 10.5848L51.3236 10.0759L52.6633 5.78724H52.6644ZM53.3041 6.78365L52.4161 9.62414L53.0625 9.82656C53.3041 9.9026 53.483 9.94286 53.5993 9.94957C53.7503 9.95852 53.8856 9.93503 54.0041 9.88024C54.1227 9.82544 54.2412 9.71137 54.3598 9.53692C54.4783 9.36246 54.589 9.11084 54.693 8.7787C54.797 8.44769 54.8473 8.18377 54.844 7.98806C54.8406 7.79236 54.8026 7.62797 54.7277 7.49601C54.6539 7.36405 54.5409 7.25445 54.3899 7.16946C54.2781 7.1046 54.0444 7.01625 53.6921 6.90666L53.303 6.78476L53.3041 6.78365Z" fill="white"/>
<path d="M55.5038 11.4839L57.2237 7.33274L58.0625 7.68053L56.3425 11.8317L55.5038 11.4839Z" fill="white"/>
<path d="M57.9663 12.5821L59.665 9.25734L58.4774 8.65122L58.8229 7.97464L62.0023 9.59954L61.6567 10.2761L60.4724 9.67111L58.7737 12.9958L57.9652 12.5832L57.9663 12.5821Z" fill="white"/>
<path d="M61.4521 11.8831C61.7093 11.504 61.981 11.2244 62.2695 11.0444C62.4831 10.9124 62.7135 10.8207 62.9618 10.7693C63.21 10.7178 63.446 10.7156 63.6697 10.7603C63.9682 10.8196 64.268 10.9516 64.571 11.1573C65.119 11.5286 65.4422 11.9961 65.5395 12.5597C65.6379 13.1233 65.4813 13.7071 65.0709 14.3121C64.6638 14.9126 64.1818 15.2716 63.6249 15.389C63.068 15.5064 62.5167 15.3801 61.971 15.0088C61.4185 14.6342 61.0931 14.1667 60.9958 13.6076C60.8985 13.0484 61.0506 12.4736 61.4521 11.882V11.8831ZM62.2427 12.383C61.9564 12.8035 61.8379 13.1893 61.8848 13.5382C61.9318 13.8871 62.1051 14.1634 62.4037 14.3669C62.7034 14.5704 63.0222 14.6286 63.3599 14.5436C63.6976 14.4586 64.013 14.2003 64.306 13.7686C64.5956 13.3425 64.7175 12.9612 64.6728 12.6246C64.628 12.288 64.4513 12.0151 64.1416 11.8048C63.8318 11.5946 63.5109 11.532 63.1776 11.6158C62.8443 11.6997 62.5323 11.9547 62.2416 12.383H62.2427Z" fill="white"/>
<path d="M65.0418 15.3007L65.7598 15.8218C65.6032 16.079 65.5395 16.3127 65.5685 16.5252C65.5976 16.7366 65.7162 16.9345 65.9219 17.1168C66.1411 17.3103 66.3458 17.4098 66.5392 17.4165C66.7316 17.4221 66.8837 17.3628 66.9933 17.2398C67.0637 17.1604 67.1006 17.0721 67.1029 16.9748C67.1051 16.8775 67.0671 16.7567 66.9877 16.6124C66.9329 16.514 66.7953 16.3049 66.5739 15.984C66.2898 15.5713 66.1333 15.2336 66.1031 14.9719C66.0606 14.604 66.1579 14.2875 66.3927 14.0213C66.5448 13.8502 66.7349 13.7328 66.9642 13.6702C67.1934 13.6076 67.4339 13.6176 67.6855 13.7015C67.9371 13.7854 68.1921 13.9419 68.4504 14.1712C68.872 14.5458 69.108 14.9193 69.1572 15.294C69.2064 15.6686 69.1002 16.0141 68.8362 16.3329L68.1306 15.7603C68.2547 15.5612 68.3028 15.3823 68.2737 15.2224C68.2458 15.0613 68.1351 14.897 67.9438 14.7281C67.747 14.5536 67.5558 14.4563 67.3724 14.4396C67.2549 14.4284 67.1565 14.4653 67.0794 14.5525C67.0089 14.6319 66.9821 14.7303 66.9988 14.8466C67.0212 14.9943 67.1621 15.2537 67.4238 15.6239C67.6844 15.9951 67.8577 16.2915 67.9416 16.5151C68.0255 16.7388 68.0489 16.9625 68.0098 17.1861C67.9718 17.4098 67.8577 17.6279 67.6698 17.8403C67.4987 18.0327 67.2851 18.1658 67.029 18.2396C66.773 18.3134 66.5113 18.3033 66.2429 18.2116C65.9745 18.1199 65.6949 17.9443 65.4019 17.686C64.977 17.3091 64.7376 16.9211 64.684 16.523C64.6303 16.1249 64.7477 15.7178 65.0373 15.3018L65.0418 15.3007Z" fill="white"/>
<path d="M69.1449 21.4357L70.6199 20.2514L71.6186 17.3393L72.284 18.1691L71.5593 20.1071L73.5946 19.8019L74.2488 20.6171L71.1802 20.9615L69.7107 22.1413L69.1449 21.4357Z" fill="white"/>
<path d="M73.0053 24.2169L73.5085 24.9472C73.2748 25.1373 73.1372 25.3375 73.0947 25.5466C73.0522 25.7557 73.097 25.9816 73.2312 26.2232C73.3732 26.4781 73.5331 26.6414 73.7132 26.7107C73.8932 26.7801 74.0554 26.7756 74.1996 26.6951C74.2924 26.6437 74.3562 26.5721 74.392 26.4815C74.4266 26.3909 74.4311 26.2645 74.4043 26.1013C74.3853 25.9906 74.3249 25.7468 74.2231 25.371C74.0923 24.8868 74.0565 24.5166 74.1158 24.2605C74.1985 23.8993 74.3953 23.6332 74.7062 23.4598C74.9064 23.3491 75.1256 23.3022 75.3627 23.3189C75.5997 23.3357 75.8234 23.4252 76.0325 23.5884C76.2417 23.7517 76.4306 23.9843 76.5984 24.2863C76.8724 24.7794 76.9697 25.2111 76.8914 25.5801C76.8131 25.9492 76.5973 26.2399 76.2428 26.4524L75.7686 25.6786C75.952 25.5321 76.056 25.3788 76.0829 25.2189C76.1097 25.0579 76.0605 24.8667 75.9375 24.643C75.81 24.4126 75.6624 24.2583 75.4946 24.18C75.3873 24.1297 75.2822 24.1331 75.1804 24.189C75.0876 24.2404 75.0294 24.3243 75.007 24.4395C74.978 24.586 75.0261 24.8778 75.1491 25.314C75.2721 25.7501 75.3358 26.0879 75.3414 26.3272C75.3459 26.5665 75.2933 26.7846 75.1826 26.9825C75.0719 27.1804 74.8919 27.3482 74.6436 27.4869C74.4188 27.6121 74.1728 27.6658 73.9066 27.6501C73.6405 27.6345 73.3967 27.5383 73.1741 27.3627C72.9516 27.1871 72.7458 26.9288 72.5568 26.5866C72.2817 26.0901 72.1844 25.6439 72.2672 25.2514C72.3488 24.8577 72.596 24.5133 73.0064 24.218L73.0053 24.2169Z" fill="white"/>
<path d="M73.7657 28.7013L77.9292 27.0116L79.1817 30.0992L78.4771 30.3855L77.5657 28.1388L76.6431 28.5135L77.4919 30.6036L76.7907 30.8887L75.9419 28.7986L74.8091 29.2582L75.753 31.5843L75.0518 31.8695L73.7668 28.7025L73.7657 28.7013Z" fill="white"/>
<path d="M75.2553 32.4745L79.5966 31.3171L80.0886 33.1623C80.2128 33.6264 80.2631 33.9741 80.2418 34.2045C80.2195 34.436 80.1255 34.6407 79.96 34.8207C79.7945 35.0008 79.5832 35.1238 79.326 35.1931C79.0005 35.2803 78.7053 35.2557 78.4425 35.1204C78.1797 34.9851 77.9694 34.7346 77.8118 34.3689C77.7514 34.5881 77.672 34.7771 77.5724 34.9359C77.4729 35.0947 77.2828 35.3239 77.001 35.6225L76.2953 36.3785L76.0158 35.3307L76.7919 34.445C77.0692 34.1296 77.2414 33.9193 77.3074 33.8131C77.3734 33.7069 77.4103 33.6029 77.4181 33.5011C77.4259 33.3993 77.4036 33.2484 77.3488 33.0471L77.3018 32.8693L75.489 33.3524L75.2553 32.4756V32.4745ZM77.9952 32.6825L78.1685 33.3311C78.2803 33.7516 78.3687 34.0099 78.4324 34.105C78.4962 34.2 78.5789 34.266 78.6818 34.3018C78.7847 34.3376 78.901 34.3387 79.0307 34.304C79.1772 34.2649 79.2846 34.1945 79.3539 34.0927C79.4232 33.9909 79.4501 33.8657 79.4367 33.7169C79.4277 33.6431 79.3752 33.4284 79.2812 33.0728L79.0989 32.3884L77.9974 32.6825H77.9952Z" fill="white"/>
<path d="M76.4899 37.8714L80.7317 35.6863L80.8614 36.6614L77.7145 38.2271L81.1566 38.879L81.2841 39.833L76.6174 38.831L76.4899 37.8714Z" fill="white"/>
<path d="M76.8064 40.7824L81.293 40.542L81.3411 41.4478L76.8545 41.6882L76.8064 40.7824Z" fill="white"/>
<path d="M78.4693 45.3921L78.1584 46.261C77.6731 46.1078 77.3175 45.8707 77.0904 45.5486C76.8634 45.2265 76.7594 44.8251 76.7773 44.3431C76.7986 43.747 77.02 43.2639 77.4416 42.8949C77.8632 42.5258 78.4268 42.3536 79.1336 42.3793C79.8806 42.4062 80.4543 42.6209 80.8535 43.0212C81.2528 43.4227 81.4418 43.9371 81.4183 44.5656C81.3982 45.1147 81.2204 45.5553 80.8826 45.8863C80.6836 46.0832 80.4017 46.2263 80.0394 46.3158L79.8571 45.4111C80.092 45.3663 80.2799 45.2623 80.4208 45.0991C80.5617 44.9358 80.6366 44.7334 80.6455 44.4918C80.6578 44.1586 80.5482 43.8846 80.3168 43.6687C80.0853 43.4529 79.7017 43.3355 79.1671 43.3154C78.599 43.2952 78.1908 43.3825 77.9426 43.5782C77.6943 43.7739 77.5646 44.0344 77.5523 44.361C77.5434 44.6025 77.6127 44.8117 77.7592 44.9917C77.9057 45.1706 78.1428 45.3037 78.4682 45.3921H78.4693Z" fill="white"/>
<path d="M76.6655 46.8582L81.1231 47.4251L81.009 48.3254L76.5514 47.7584L76.6655 46.8582Z" fill="white"/>
<path d="M78.6952 48.8297C79.1414 48.9304 79.5015 49.0813 79.7744 49.2838C79.9746 49.4336 80.1445 49.6148 80.2832 49.8273C80.4219 50.0397 80.5102 50.2578 80.5505 50.4826C80.6042 50.7823 80.5907 51.11 80.5102 51.4667C80.3649 52.1131 80.0472 52.5839 79.5597 52.8814C79.0721 53.1788 78.4704 53.247 77.757 53.086C77.0491 52.9261 76.5391 52.6096 76.226 52.1343C75.9129 51.659 75.829 51.0999 75.9744 50.4569C76.1209 49.8049 76.4374 49.3318 76.9216 49.0366C77.4058 48.7414 77.9974 48.6732 78.6952 48.8297ZM78.5196 49.7479C78.0231 49.636 77.6217 49.6651 77.313 49.8373C77.0055 50.0084 76.8109 50.2712 76.7315 50.6235C76.6521 50.9769 76.7136 51.2945 76.9171 51.5785C77.1206 51.8626 77.4763 52.0616 77.984 52.1757C78.4861 52.2887 78.8853 52.264 79.1828 52.0985C79.4791 51.9341 79.6693 51.6691 79.752 51.3045C79.8348 50.94 79.7755 50.6179 79.5753 50.3383C79.3752 50.0588 79.024 49.8619 78.5196 49.7479Z" fill="white"/>
<path d="M76.8254 53.4215L76.6017 54.2792C76.3054 54.2267 76.0638 54.2535 75.8771 54.3575C75.6903 54.4615 75.5494 54.6438 75.4544 54.9033C75.3537 55.1772 75.3358 55.4054 75.4007 55.5877C75.4655 55.7699 75.5763 55.8885 75.7317 55.9455C75.8312 55.9824 75.9274 55.9835 76.0191 55.9511C76.1108 55.9187 76.2092 55.8382 76.3143 55.7118C76.3859 55.6246 76.5302 55.4199 76.7494 55.0978C77.0301 54.6829 77.2873 54.4134 77.5199 54.2904C77.8475 54.1171 78.1774 54.0914 78.5118 54.2144C78.7265 54.2938 78.9055 54.428 79.0475 54.6181C79.1895 54.8082 79.2678 55.0363 79.2812 55.3014C79.2946 55.5664 79.2421 55.8605 79.1224 56.1848C78.9278 56.7138 78.665 57.0705 78.3351 57.2528C78.0041 57.4351 77.6429 57.4619 77.2515 57.3322L77.5266 56.4666C77.757 56.5103 77.9415 56.489 78.0802 56.404C78.2188 56.319 78.3329 56.1569 78.4212 55.9164C78.5118 55.6693 78.5319 55.4568 78.4827 55.279C78.4503 55.1649 78.3799 55.0878 78.2703 55.0475C78.1707 55.0106 78.0701 55.0218 77.9672 55.0799C77.8375 55.1538 77.6474 55.3808 77.398 55.7588C77.1475 56.1367 76.9339 56.4063 76.7572 56.5662C76.5794 56.7261 76.3792 56.829 76.1567 56.8748C75.9341 56.9207 75.6892 56.8938 75.4231 56.7965C75.1815 56.7082 74.9802 56.5572 74.8181 56.3459C74.6559 56.1345 74.5698 55.8862 74.5575 55.6033C74.5452 55.3204 74.6067 54.995 74.7409 54.6293C74.9366 54.0958 75.2106 53.7324 75.5617 53.5367C75.9129 53.341 76.3356 53.303 76.8276 53.4204L76.8254 53.4215Z" fill="white"/>
<path d="M73.2334 58.4449L77.096 60.7408L76.4027 61.9083L73.3508 61.0428L75.574 63.3017L74.8784 64.4715L71.0158 62.1756L71.4464 61.4509L74.487 63.2581L71.9026 60.6838L72.3488 59.9334L75.8435 60.9768L72.8029 59.1696L73.2334 58.4449Z" fill="white"/>
<path d="M74.0766 65.5864L73.5096 66.2943L71.6096 64.7734C71.3077 64.5319 71.1053 64.3843 71.0024 64.3306C70.8346 64.2456 70.6613 64.2255 70.4835 64.2702C70.3057 64.3149 70.1368 64.4357 69.978 64.6336C69.817 64.8349 69.7365 65.0194 69.7376 65.1872C69.7387 65.3549 69.7901 65.497 69.893 65.6133C69.9959 65.7296 70.186 65.8996 70.4645 66.121L72.4047 67.6743L71.8378 68.3822L69.9948 66.9072C69.5732 66.5705 69.2914 66.3122 69.1482 66.1355C69.0051 65.9577 68.9145 65.7698 68.8776 65.5719C68.8407 65.3728 68.8552 65.1592 68.9223 64.93C68.9894 64.7007 69.1337 64.448 69.3562 64.1695C69.6246 63.834 69.8662 63.6115 70.082 63.4997C70.2979 63.389 70.5081 63.3319 70.7116 63.3308C70.9152 63.3297 71.0986 63.3666 71.2596 63.4438C71.4978 63.5578 71.8132 63.7725 72.2057 64.0868L74.0766 65.5842V65.5864Z" fill="white"/>
<path d="M67.7414 66.1982L70.866 69.3764L70.2185 70.0127L67.6251 67.3746L66.0159 68.9559L65.4847 68.4157L67.7403 66.1982H67.7414Z" fill="white"/>
<path d="M64.2825 69.382L66.5929 72.3142L67.6408 71.4889L68.1116 72.086L65.3069 74.2958L64.8361 73.6986L65.8805 72.8755L63.5701 69.9434L64.2825 69.382Z" fill="white"/>
<path d="M62.1096 71.0013L64.6001 74.742L63.8452 75.2452L61.3548 71.5045L62.1096 71.0013Z" fill="white"/>
<path d="M60.7173 71.9496L62.8801 75.8883L61.6041 76.5883C61.1199 76.8545 60.7945 77.0077 60.6256 77.0491C60.3673 77.1139 60.1078 77.0893 59.8473 76.9741C59.5867 76.8601 59.3698 76.6454 59.1975 76.3322C59.0645 76.0907 58.9974 75.8625 58.994 75.6501C58.9907 75.4376 59.032 75.2464 59.1159 75.0786C59.1998 74.9098 59.3027 74.7722 59.4257 74.6648C59.5945 74.5228 59.8596 74.3528 60.2197 74.156L60.7386 73.8708L59.9233 72.3846L60.7184 71.9485L60.7173 71.9496ZM61.7182 75.659L61.1043 74.5407L60.6692 74.78C60.3561 74.9522 60.157 75.0876 60.0743 75.1871C59.9915 75.2866 59.9435 75.3962 59.9323 75.517C59.92 75.6378 59.9468 75.7563 60.0105 75.8726C60.0888 76.0158 60.1962 76.1108 60.3315 76.1578C60.4668 76.2048 60.6055 76.2048 60.7475 76.1578C60.8526 76.1231 61.0483 76.0281 61.3346 75.8704L61.7193 75.659H61.7182Z" fill="white"/>
<path d="M57.1052 73.8653L58.7849 77.9929L57.945 78.3351L56.5505 74.9086L54.4615 75.7585L54.1764 75.0574L57.1063 73.8653H57.1052Z" fill="white"/>
<path d="M53.6765 75.2218L54.882 79.5507L51.6725 80.4443L51.4689 79.7118L53.804 79.062L53.5367 78.1025L51.3638 78.7075L51.1603 77.9784L53.3331 77.3734L53.0055 76.1947L50.5877 76.8679L50.3842 76.1388L53.6765 75.2218Z" fill="white"/>
<path d="M50.2254 77.6496L49.3687 77.8789C49.2681 77.5948 49.1261 77.398 48.9427 77.2873C48.7593 77.1766 48.5323 77.1441 48.2605 77.19C47.972 77.2381 47.7651 77.3354 47.6399 77.4808C47.5135 77.6272 47.4643 77.7816 47.4922 77.9448C47.5101 78.05 47.5549 78.1338 47.6287 78.1976C47.7025 78.2613 47.8199 78.3072 47.9832 78.3363C48.0939 78.3553 48.3433 78.3799 48.7324 78.4112C49.2323 78.4503 49.5924 78.5409 49.815 78.6818C50.1281 78.8809 50.3126 79.1549 50.3719 79.506C50.4099 79.7319 50.3808 79.9533 50.2858 80.1714C50.1907 80.3895 50.0308 80.5695 49.8071 80.7126C49.5835 80.8558 49.3017 80.9553 48.9606 81.0124C48.4048 81.1052 47.9653 81.0526 47.6432 80.8558C47.3211 80.659 47.1198 80.357 47.0382 79.9522L47.9261 79.7643C48.0022 79.9858 48.1118 80.1356 48.2538 80.215C48.3969 80.2944 48.5938 80.3123 48.8454 80.2709C49.1059 80.2273 49.3005 80.1401 49.4291 80.0092C49.513 79.9254 49.5443 79.8258 49.5253 79.7107C49.5074 79.6055 49.4481 79.5239 49.3475 79.4635C49.2189 79.3875 48.9281 79.3338 48.4763 79.3036C48.0234 79.2734 47.6846 79.2208 47.4576 79.1448C47.2305 79.0687 47.0427 78.9468 46.8928 78.7757C46.743 78.6046 46.6457 78.3799 46.5987 78.0992C46.5562 77.8453 46.5875 77.5959 46.6915 77.3499C46.7955 77.105 46.9677 76.9071 47.2082 76.7561C47.4486 76.6051 47.7606 76.4977 48.1453 76.434C48.7056 76.3412 49.1574 76.3982 49.5007 76.6074C49.844 76.8165 50.0867 77.1643 50.2276 77.6507L50.2254 77.6496Z" fill="white"/>
<path d="M42.48 79.1437C42.4766 78.892 42.5627 78.6773 42.7361 78.4984C42.9105 78.3195 43.1219 78.2278 43.3713 78.2244C43.6229 78.2211 43.8376 78.3072 44.0165 78.4827C44.1955 78.6583 44.2872 78.8708 44.2905 79.1202C44.2939 79.3696 44.2078 79.5832 44.0344 79.7632C43.86 79.9421 43.6475 80.0338 43.3959 80.0372C43.1465 80.0405 42.9329 79.9556 42.7528 79.7822C42.5728 79.6089 42.4822 79.3964 42.4789 79.1448L42.48 79.1437Z" fill="white"/>
<path d="M43 72.4495C59.2645 72.4495 72.4495 59.2645 72.4495 43C72.4495 26.7355 59.2645 13.5505 43 13.5505C26.7355 13.5505 13.5505 26.7355 13.5505 43C13.5505 59.2645 26.7355 72.4495 43 72.4495Z" fill="#FFF213"/>
<path d="M13.9173 47.5258H25.6215V60.8236H31.2958V47.5258H43L28.4587 21.486L13.9173 47.5258Z" fill="#0F6808"/>
<path d="M57.5413 21.486L43 47.5258H54.7042V60.8236H60.3785V47.5258H72.0827L57.5413 21.486Z" fill="#0F6808"/>
<path d="M26.893 64.8908L27.4567 65.0698C27.3705 65.384 27.2263 65.6177 27.025 65.771C26.8237 65.9242 26.5687 66.0002 26.259 66.0002C25.8765 66.0002 25.5622 65.8694 25.3151 65.6077C25.068 65.346 24.9461 64.9893 24.9461 64.5352C24.9461 64.0555 25.0702 63.6831 25.3173 63.418C25.5645 63.153 25.891 63.0199 26.2947 63.0199C26.647 63.0199 26.9333 63.1239 27.1536 63.3319C27.2844 63.4549 27.3828 63.6316 27.4488 63.8631L26.8729 64.0007C26.8394 63.8508 26.7678 63.7334 26.6593 63.6473C26.5508 63.5612 26.42 63.5176 26.2657 63.5176C26.0521 63.5176 25.8787 63.5947 25.7456 63.7479C25.6126 63.9011 25.5466 64.1494 25.5466 64.4927C25.5466 64.8573 25.6126 65.1167 25.7434 65.2711C25.8743 65.4254 26.0454 65.5026 26.2545 65.5026C26.4088 65.5026 26.5419 65.4534 26.6537 65.3549C26.7655 65.2565 26.8449 65.1022 26.893 64.8908Z" fill="#0F6808"/>
<path d="M27.8391 64.5274C27.8391 64.2344 27.8827 63.9873 27.9711 63.7882C28.0371 63.6417 28.1265 63.5097 28.2395 63.3934C28.3524 63.2771 28.4766 63.1899 28.6119 63.134C28.7919 63.0579 28.9988 63.0199 29.2325 63.0199C29.6575 63.0199 29.9963 63.1519 30.2513 63.4147C30.5063 63.6775 30.6338 64.0443 30.6338 64.514C30.6338 64.9837 30.5074 65.3438 30.2547 65.6054C30.0019 65.8671 29.6631 65.9991 29.2404 65.9991C28.8176 65.9991 28.471 65.8682 28.2182 65.6066C27.9655 65.3449 27.8391 64.9848 27.8391 64.5263V64.5274ZM28.4385 64.5073C28.4385 64.8338 28.5135 65.081 28.6644 65.2498C28.8154 65.4187 29.0066 65.5026 29.2381 65.5026C29.4696 65.5026 29.6608 65.4187 29.8096 65.2521C29.9583 65.0854 30.0332 64.8338 30.0332 64.5006C30.0332 64.1673 29.9605 63.9235 29.8163 63.7614C29.672 63.5992 29.4797 63.5176 29.2392 63.5176C28.9988 63.5176 28.8065 63.6003 28.6588 63.7647C28.5112 63.9291 28.4385 64.1774 28.4385 64.5084V64.5073Z" fill="#0F6808"/>
<path d="M30.9704 64.5274C30.9704 64.2344 31.014 63.9873 31.1023 63.7882C31.1683 63.6417 31.2578 63.5097 31.3707 63.3934C31.4837 63.2771 31.6078 63.1899 31.7431 63.134C31.9232 63.0579 32.1301 63.0199 32.3638 63.0199C32.7887 63.0199 33.1276 63.1519 33.3826 63.4147C33.6375 63.6775 33.765 64.0443 33.765 64.514C33.765 64.9837 33.6387 65.3438 33.3859 65.6054C33.1332 65.8671 32.7943 65.9991 32.3716 65.9991C31.9489 65.9991 31.6022 65.8682 31.3495 65.6066C31.0967 65.3449 30.9704 64.9848 30.9704 64.5263V64.5274ZM31.5698 64.5073C31.5698 64.8338 31.6447 65.081 31.7957 65.2498C31.9467 65.4187 32.1379 65.5026 32.3694 65.5026C32.6009 65.5026 32.7921 65.4187 32.9408 65.2521C33.0896 65.0854 33.1645 64.8338 33.1645 64.5006C33.1645 64.1673 33.0918 63.9235 32.9475 63.7614C32.8033 63.5992 32.6109 63.5176 32.3705 63.5176C32.1301 63.5176 31.9377 63.6003 31.7901 63.7647C31.6425 63.9291 31.5698 64.1774 31.5698 64.5084V64.5073Z" fill="#0F6808"/>
<path d="M34.2202 65.951V63.0691H35.154C35.5073 63.0691 35.7388 63.0837 35.8462 63.1127C36.0117 63.1563 36.1493 63.2503 36.2611 63.3946C36.3729 63.5388 36.4277 63.7267 36.4277 63.9559C36.4277 64.1326 36.3953 64.2814 36.3315 64.4021C36.2678 64.5229 36.1862 64.6169 36.0866 64.6862C35.9871 64.7555 35.8876 64.8003 35.7847 64.8226C35.646 64.8506 35.4447 64.864 35.1808 64.864H34.8017V65.951H34.2202ZM34.8017 63.5567V64.3742H35.1204C35.3497 64.3742 35.5029 64.3596 35.58 64.3295C35.6572 64.2993 35.7176 64.2523 35.7623 64.1874C35.8071 64.1226 35.8283 64.0488 35.8283 63.9638C35.8283 63.8586 35.797 63.7725 35.7355 63.7043C35.674 63.6361 35.5957 63.5936 35.5018 63.5768C35.4324 63.5634 35.2926 63.5567 35.0835 63.5567H34.8017Z" fill="#0F6808"/>
<path d="M37.4823 63.0691V64.6303C37.4823 64.8774 37.489 65.0385 37.5035 65.1123C37.5281 65.2297 37.5874 65.3248 37.6813 65.3963C37.7753 65.4679 37.9028 65.5037 38.066 65.5037C38.2293 65.5037 38.3557 65.4701 38.4395 65.4019C38.5234 65.3337 38.5737 65.2521 38.5905 65.1536C38.6073 65.0552 38.6162 64.892 38.6162 64.6638V63.0691H39.1978V64.5833C39.1978 64.9289 39.1821 65.1738 39.1508 65.3169C39.1195 65.4601 39.0613 65.5808 38.9763 65.6781C38.8913 65.7754 38.7784 65.8548 38.6375 65.913C38.4966 65.9711 38.3109 66.0002 38.0828 66.0002C37.8077 66.0002 37.5986 65.9689 37.4566 65.9052C37.3145 65.8414 37.2016 65.7587 37.1199 65.658C37.0383 65.5574 36.9835 65.45 36.9567 65.3382C36.9186 65.1727 36.8996 64.9289 36.8996 64.6068V63.0691H37.4823Z" fill="#0F6808"/>
<path d="M39.8184 65.951V63.0691H40.3843L41.5641 64.9937V63.0691H42.1042V65.951H41.5205L40.3586 64.0722V65.951H39.8184Z" fill="#0F6808"/>
<path d="M42.7025 65.951V63.0691H43.284V65.951H42.7025Z" fill="#0F6808"/>
<path d="M43.7202 64.5274C43.7202 64.2344 43.7638 63.9873 43.8521 63.7882C43.9181 63.6417 44.0076 63.5097 44.1205 63.3934C44.2335 63.2771 44.3576 63.1899 44.4929 63.134C44.673 63.0579 44.8799 63.0199 45.1136 63.0199C45.5386 63.0199 45.8774 63.1519 46.1324 63.4147C46.3873 63.6775 46.5148 64.0443 46.5148 64.514C46.5148 64.9837 46.3885 65.3438 46.1357 65.6054C45.883 65.8671 45.5441 65.9991 45.1214 65.9991C44.6987 65.9991 44.352 65.8682 44.0993 65.6066C43.8466 65.3449 43.7202 64.9848 43.7202 64.5263V64.5274ZM44.3196 64.5073C44.3196 64.8338 44.3945 65.081 44.5455 65.2498C44.6965 65.4187 44.8877 65.5026 45.1192 65.5026C45.3507 65.5026 45.5419 65.4187 45.6906 65.2521C45.8394 65.0854 45.9143 64.8338 45.9143 64.5006C45.9143 64.1673 45.8416 63.9235 45.6974 63.7614C45.5531 63.5992 45.3607 63.5176 45.1203 63.5176C44.8799 63.5176 44.6875 63.6003 44.5399 63.7647C44.3923 63.9291 44.3196 64.1774 44.3196 64.5084V64.5073Z" fill="#0F6808"/>
<path d="M46.9677 63.0691H48.0313C48.2706 63.0691 48.454 63.087 48.5792 63.1239C48.7481 63.1742 48.8935 63.2626 49.0131 63.389C49.1328 63.5153 49.2256 63.6719 49.2882 63.8553C49.3509 64.0387 49.3822 64.2668 49.3822 64.5363C49.3822 64.7734 49.3531 64.9781 49.2938 65.1492C49.2223 65.3594 49.1194 65.5283 48.9852 65.658C48.8845 65.7564 48.7481 65.8325 48.5759 65.8884C48.4473 65.9286 48.2762 65.9488 48.0603 65.9488H46.9655V63.0669L46.9677 63.0691ZM47.5493 63.5567V65.4657H47.9832C48.1453 65.4657 48.2627 65.4567 48.3354 65.4377C48.4294 65.4142 48.5077 65.374 48.5703 65.318C48.6329 65.2621 48.6832 65.1693 48.7224 65.0396C48.7615 64.9099 48.7816 64.7343 48.7816 64.5117C48.7816 64.2892 48.7615 64.1181 48.7224 63.9984C48.6832 63.8788 48.6284 63.786 48.5569 63.7189C48.4853 63.6518 48.3958 63.607 48.2874 63.5835C48.2057 63.5657 48.0469 63.5556 47.8098 63.5556H47.5481L47.5493 63.5567Z" fill="#0F6808"/>
<path d="M49.759 64.5274C49.759 64.2344 49.8027 63.9873 49.891 63.7882C49.957 63.6417 50.0464 63.5097 50.1594 63.3934C50.2723 63.2771 50.3965 63.1899 50.5318 63.134C50.7118 63.0579 50.9187 63.0199 51.1525 63.0199C51.5774 63.0199 51.9163 63.1519 52.1712 63.4147C52.4262 63.6775 52.5537 64.0443 52.5537 64.514C52.5537 64.9837 52.4273 65.3438 52.1746 65.6054C51.9218 65.8671 51.583 65.9991 51.1603 65.9991C50.7376 65.9991 50.3909 65.8682 50.1381 65.6066C49.8854 65.3449 49.759 64.9848 49.759 64.5263V64.5274ZM50.3585 64.5073C50.3585 64.8338 50.4334 65.081 50.5844 65.2498C50.7353 65.4187 50.9266 65.5026 51.158 65.5026C51.3895 65.5026 51.5808 65.4187 51.7295 65.2521C51.8782 65.0854 51.9532 64.8338 51.9532 64.5006C51.9532 64.1673 51.8805 63.9235 51.7362 63.7614C51.5919 63.5992 51.3996 63.5176 51.1592 63.5176C50.9187 63.5176 50.7264 63.6003 50.5788 63.7647C50.4311 63.9291 50.3585 64.1774 50.3585 64.5084V64.5073Z" fill="#0F6808"/>
<path d="M53.0144 65.951V63.0691H53.5803L54.7601 64.9937V63.0691H55.3003V65.951H54.7165L53.5546 64.0722V65.951H53.0144Z" fill="#0F6808"/>
<path d="M56.5651 65.951V63.5567H55.7095V63.0691H57.9998V63.5567H57.1466V65.951H56.5651Z" fill="#0F6808"/>
<path d="M58.2571 64.5274C58.2571 64.2344 58.3007 63.9873 58.389 63.7882C58.455 63.6417 58.5445 63.5097 58.6574 63.3934C58.7704 63.2771 58.8945 63.1899 59.0298 63.134C59.2098 63.0579 59.4167 63.0199 59.6505 63.0199C60.0754 63.0199 60.4143 63.1519 60.6692 63.4147C60.9242 63.6775 61.0517 64.0443 61.0517 64.514C61.0517 64.9837 60.9253 65.3438 60.6726 65.6054C60.4199 65.8671 60.081 65.9991 59.6583 65.9991C59.2356 65.9991 58.8889 65.8682 58.6362 65.6066C58.3834 65.3449 58.2571 64.9848 58.2571 64.5263V64.5274ZM58.8565 64.5073C58.8565 64.8338 58.9314 65.081 59.0824 65.2498C59.2333 65.4187 59.4246 65.5026 59.6561 65.5026C59.8875 65.5026 60.0788 65.4187 60.2275 65.2521C60.3762 65.0854 60.4512 64.8338 60.4512 64.5006C60.4512 64.1673 60.3785 63.9235 60.2342 63.7614C60.09 63.5992 59.8976 63.5176 59.6572 63.5176C59.4167 63.5176 59.2244 63.6003 59.0768 63.7647C58.9292 63.9291 58.8565 64.1774 58.8565 64.5084V64.5073Z" fill="#0F6808"/>
</svg>
